<svg width="30" height="30" viewBox="0 0 38 38" fill="none" xmlns="http://www.w3.org/2000/svg">
<path d="M30.7718 4H27.1105V4.34682C27.1105 4.71475 26.964 5.06761 26.7033 5.32778C26.4425 5.58794 26.0889 5.7341 25.7201 5.7341H25.4652C25.0965 5.7341 24.7428 5.58794 24.4821 5.32778C24.2214 5.06761 24.0749 4.71475 24.0749 4.34682V4H13.9251V4.34682C13.9251 4.71475 13.7786 5.06761 13.5179 5.32778C13.2572 5.58794 12.9035 5.7341 12.5348 5.7341H12.2799C11.9111 5.7341 11.5575 5.58794 11.2967 5.32778C11.036 5.06761 10.8895 4.71475 10.8895 4.34682V4H7.22816C6.90244 4 6.59005 4.12911 6.35972 4.35892C6.1294 4.58873 6 4.90043 6 5.22543V34.7746C6 34.9355 6.03177 35.0948 6.09349 35.2435C6.15521 35.3922 6.24568 35.5273 6.35972 35.6411C6.47377 35.7549 6.60916 35.8451 6.75817 35.9067C6.90717 35.9683 7.06688 36 7.22816 36H30.7718C30.9331 36 31.0928 35.9683 31.2418 35.9067C31.3908 35.8451 31.5262 35.7549 31.6403 35.6411C31.7543 35.5273 31.8448 35.3922 31.9065 35.2435C31.9682 35.0948 32 34.9355 32 34.7746V5.22543C32 4.90043 31.8706 4.58873 31.6403 4.35892C31.41 4.12911 31.0976 4 30.7718 4V4ZM30.0535 33.4798C30.0535 33.5759 30.0342 33.671 29.9967 33.7595C29.9591 33.848 29.9041 33.9281 29.8349 33.995C29.7658 34.0618 29.6838 34.1141 29.594 34.1488C29.5041 34.1834 29.4082 34.1996 29.3119 34.1965H8.68806C8.59179 34.1996 8.49588 34.1834 8.40603 34.1488C8.31618 34.1141 8.23423 34.0618 8.16505 33.995C8.09587 33.9281 8.04088 33.848 8.00334 33.7595C7.96579 33.671 7.94647 33.5759 7.94652 33.4798V14.5896C7.94652 14.3934 8.02465 14.2052 8.16371 14.0664C8.30278 13.9277 8.49139 13.8497 8.68806 13.8497H29.3119C29.5086 13.8497 29.6972 13.9277 29.8363 14.0664C29.9753 14.2052 30.0535 14.3934 30.0535 14.5896V33.4798ZM30.1925 12C30.1925 12.0981 30.1534 12.1922 30.0839 12.2616C30.0144 12.331 29.9201 12.3699 29.8217 12.3699H8.40998C8.3094 12.3701 8.21255 12.3319 8.13931 12.2631C8.06606 12.1943 8.02196 12.1002 8.01604 12V7.37572C8.02161 7.27328 8.06489 7.17649 8.1376 7.10395C8.21031 7.0314 8.30731 6.98821 8.40998 6.98266H29.8217C29.9222 6.98856 30.0165 7.03257 30.0854 7.10565C30.1544 7.17873 30.1927 7.27536 30.1925 7.37572V12Z" fill="#387EB9"/>
<path d="M12.4333 5H12.5666C12.6235 5 12.6798 4.97955 12.7324 4.93983C12.785 4.9001 12.8327 4.84188 12.8729 4.76848C12.9132 4.69507 12.9451 4.60793 12.9669 4.51203C12.9886 4.41613 12.9998 4.31334 12.9998 4.20953V2.79074C13.0014 2.68618 12.9912 2.58214 12.97 2.48497C12.9488 2.38781 12.9169 2.29955 12.8764 2.22559C12.8358 2.15162 12.7874 2.0935 12.7342 2.05476C12.6809 2.01602 12.6239 1.99748 12.5666 2.00027H12.4333C12.3184 2.00027 12.2082 2.08356 12.1269 2.2318C12.0456 2.38004 12 2.5811 12 2.79074V4.20953C12.0028 4.41756 12.0494 4.61565 12.13 4.76279C12.2107 4.90993 12.3192 4.99486 12.4333 5V5Z" fill="#387EB9"/>
<path d="M25.4334 5H25.5667C25.6808 4.99486 25.7893 4.90993 25.87 4.76279C25.9506 4.61565 25.9972 4.41756 26 4.20953V2.79074C26 2.5811 25.9544 2.38004 25.8731 2.2318C25.7918 2.08356 25.6816 2.00027 25.5667 2.00027H25.4334C25.3761 1.99748 25.3191 2.01602 25.2658 2.05476C25.2126 2.0935 25.1642 2.15162 25.1236 2.22559C25.0831 2.29955 25.0512 2.38781 25.03 2.48497C25.0088 2.58214 24.9986 2.68618 25.0002 2.79074V4.20953C25.0002 4.41918 25.0458 4.62023 25.1271 4.76848C25.2083 4.91672 25.3185 5 25.4334 5Z" fill="#387EB9"/>
<path d="M19.3487 24.7827C19.1941 24.5499 18.9801 24.3525 18.7239 24.2063C18.4784 24.0733 18.2189 23.962 17.949 23.8737C18.2411 23.7856 18.5123 23.6503 18.7489 23.4746C18.9851 23.2777 19.1797 23.045 19.3237 22.7874C19.4843 22.4682 19.6018 22.1333 19.6737 21.7897C19.7586 21.3279 19.8004 20.8608 19.7986 20.3929C19.7907 19.9353 19.715 19.4807 19.5737 19.0405C19.4489 18.6474 19.2269 18.2838 18.9238 17.9763C18.651 17.6761 18.299 17.4401 17.899 17.289C17.4597 17.1087 16.9832 17.0106 16.4993 17.0008C15.9834 16.9903 15.4713 17.0812 14.9996 17.2669C14.6 17.4487 14.2502 17.706 13.9748 18.0207C13.6882 18.3756 13.4765 18.7738 13.3499 19.1957C13.1849 19.6809 13.0678 20.1779 13 20.6811L15.3745 20.9694C15.3745 20.6368 15.4995 20.3264 15.5495 20.1047C15.5905 19.8991 15.6576 19.6983 15.7495 19.5061C15.8074 19.3947 15.8928 19.2962 15.9994 19.2179C16.1599 19.1611 16.3388 19.1611 16.4993 19.2179C16.6339 19.2035 16.7703 19.2254 16.8907 19.2808C17.0111 19.3361 17.1099 19.4224 17.1742 19.5283C17.3263 19.8506 17.3946 20.1992 17.3741 20.5481C17.4065 20.9541 17.4065 21.3615 17.3741 21.7675C17.3578 22.0466 17.2724 22.3191 17.1242 22.5657C17.0271 22.7515 16.8588 22.9008 16.6493 22.9869C16.3992 23.0598 16.1377 23.0972 15.8744 23.0977H15.2745V25.1153H15.7994C16.1047 25.0988 16.4106 25.1365 16.6993 25.2261C16.9326 25.2931 17.129 25.4356 17.2492 25.6252C17.4032 25.8711 17.4969 26.1431 17.5241 26.4233C17.5555 26.8367 17.5555 27.2515 17.5241 27.6649C17.5562 28.2411 17.4802 28.818 17.2991 29.372C17.2548 29.5244 17.1546 29.6593 17.0143 29.7557C16.8741 29.852 16.7017 29.9042 16.5243 29.9041C16.3622 29.9097 16.2026 29.8668 16.0712 29.7824C15.9398 29.698 15.8441 29.5769 15.7994 29.4386C15.6157 28.9444 15.5146 28.429 15.4995 27.9088L13 28.197C13.0427 28.7145 13.1432 29.2269 13.2999 29.7268C13.4315 30.154 13.6427 30.5586 13.9248 30.924C14.1923 31.251 14.5435 31.517 14.9496 31.7C15.4226 31.8975 15.939 32 16.4618 32C16.9846 32 17.501 31.8975 17.974 31.7C18.426 31.4916 18.8125 31.1868 19.0988 30.8131C19.4214 30.3897 19.6505 29.9157 19.7736 29.4164C19.932 28.7983 20.0075 28.1657 19.9986 27.5319C20.0093 26.9893 19.959 26.4472 19.8486 25.9134C19.7744 25.5093 19.604 25.1238 19.3487 24.7827Z" fill="#387EB9"/>
<path d="M22.7561 17.6471C22.6624 17.8325 22.5296 17.9977 22.3659 18.1325C22.1937 18.2557 22.0051 18.3568 21.8049 18.433C21.5416 18.5074 21.2725 18.5615 21 18.5948V20.074H22.561V32H25V17H22.9268C22.8919 17.2204 22.8347 17.4371 22.7561 17.6471Z" fill="#387EB9"/>
</svg>
