<svg width="30" height="30" viewBox="0 0 30 30" fill="none" xmlns="http://www.w3.org/2000/svg">
<path d="M21.3501 6.98743H19.3751V7.17493C19.3751 7.37384 19.296 7.5646 19.1554 7.70526C19.0147 7.84591 18.824 7.92493 18.6251 7.92493H18.4875C18.2886 7.92493 18.0979 7.84591 17.9572 7.70526C17.8166 7.5646 17.7375 7.37384 17.7375 7.17493V6.98743H12.2625V7.17493C12.2625 7.37384 12.1835 7.5646 12.0429 7.70526C11.9022 7.84591 11.7115 7.92493 11.5125 7.92493H11.375C11.1761 7.92493 10.9854 7.84591 10.8447 7.70526C10.7041 7.5646 10.625 7.37384 10.625 7.17493V6.98743H8.65005C8.47434 6.98743 8.30583 7.05723 8.18159 7.18147C8.05735 7.30571 7.98755 7.47422 7.98755 7.64993V23.6249C7.98755 23.7119 8.00468 23.7981 8.03798 23.8785C8.07127 23.9588 8.12007 24.0319 8.18159 24.0934C8.24311 24.1549 8.31614 24.2037 8.39652 24.237C8.4769 24.2703 8.56305 24.2874 8.65005 24.2874H21.3501C21.4371 24.2874 21.5232 24.2703 21.6036 24.237C21.684 24.2037 21.757 24.1549 21.8185 24.0934C21.88 24.0319 21.9288 23.9588 21.9621 23.8785C21.9954 23.7981 22.0126 23.7119 22.0126 23.6249V7.64993C22.0126 7.47422 21.9428 7.30571 21.8185 7.18147C21.6943 7.05723 21.5258 6.98743 21.3501 6.98743ZM20.9626 22.9249C20.9626 22.9769 20.9522 23.0283 20.9319 23.0762C20.9117 23.124 20.882 23.1673 20.8447 23.2034C20.8074 23.2396 20.7631 23.2679 20.7147 23.2866C20.6662 23.3053 20.6145 23.3141 20.5626 23.3124H9.43755C9.38562 23.3141 9.33388 23.3053 9.28542 23.2866C9.23695 23.2679 9.19275 23.2396 9.15543 23.2034C9.11811 23.1673 9.08844 23.124 9.06819 23.0762C9.04794 23.0283 9.03752 22.9769 9.03755 22.9249V12.7124C9.03755 12.6063 9.07969 12.5046 9.15471 12.4296C9.22972 12.3546 9.33146 12.3124 9.43755 12.3124H20.5626C20.6686 12.3124 20.7704 12.3546 20.8454 12.4296C20.9204 12.5046 20.9626 12.6063 20.9626 12.7124V22.9249ZM21.0376 11.3124C21.0376 11.3655 21.0165 11.4163 20.979 11.4538C20.9415 11.4914 20.8906 11.5124 20.8376 11.5124H9.28755C9.23329 11.5125 9.18105 11.4919 9.14154 11.4547C9.10203 11.4175 9.07824 11.3666 9.07505 11.3124V8.81243C9.07805 8.75704 9.1014 8.70472 9.14062 8.6655C9.17984 8.62628 9.23216 8.60293 9.28755 8.59993H20.8376C20.8917 8.60312 20.9426 8.62691 20.9798 8.66642C21.017 8.70593 21.0376 8.75817 21.0376 8.81243V11.3124Z" fill="#387EB9"/>
<path d="M11.3625 7.6125H11.5125C11.5765 7.6125 11.6399 7.59989 11.6991 7.57539C11.7582 7.55089 11.8119 7.51498 11.8572 7.46971C11.9025 7.42444 11.9384 7.3707 11.9629 7.31156C11.9874 7.25241 12 7.18902 12 7.125V6.25C12.0017 6.18551 11.9903 6.12135 11.9664 6.06142C11.9425 6.0015 11.9067 5.94707 11.861 5.90145C11.8154 5.85584 11.761 5.81999 11.7011 5.7961C11.6412 5.77221 11.577 5.76078 11.5125 5.7625H11.3625C11.2332 5.7625 11.1092 5.81386 11.0178 5.90528C10.9264 5.99671 10.875 6.12071 10.875 6.25V7.125C10.8782 7.25329 10.9305 7.37546 11.0213 7.4662C11.112 7.55695 11.2342 7.60933 11.3625 7.6125Z" fill="#387EB9"/>
<path d="M18.4875 7.6125H18.6375C18.7658 7.60933 18.888 7.55695 18.9788 7.4662C19.0695 7.37546 19.1219 7.25329 19.125 7.125V6.25C19.125 6.12071 19.0737 5.99671 18.9823 5.90528C18.8908 5.81386 18.7668 5.7625 18.6375 5.7625H18.4875C18.4231 5.76078 18.3589 5.77221 18.299 5.7961C18.239 5.81999 18.1846 5.85584 18.139 5.90145C18.0934 5.94707 18.0575 6.0015 18.0337 6.06142C18.0098 6.12135 17.9983 6.18551 18 6.25V7.125C18 7.25429 18.0514 7.37829 18.1428 7.46971C18.2343 7.56114 18.3583 7.6125 18.4875 7.6125Z" fill="#387EB9"/>
<path d="M15.175 18.1375C15.0977 18.0062 14.9906 17.8949 14.8625 17.8125C14.7397 17.7375 14.61 17.6747 14.475 17.625C14.6211 17.5753 14.7567 17.499 14.875 17.4C14.9931 17.2889 15.0905 17.1577 15.1625 17.0125C15.2428 16.8325 15.3015 16.6437 15.3375 16.45C15.38 16.1896 15.4009 15.9262 15.4 15.6625C15.396 15.4045 15.3582 15.1481 15.2875 14.9C15.2251 14.6783 15.1141 14.4733 14.9625 14.3C14.826 14.1307 14.65 13.9976 14.45 13.9125C14.2303 13.8108 13.992 13.7555 13.75 13.75C13.492 13.7441 13.2359 13.7953 13 13.9C12.8002 14.0025 12.6252 14.1476 12.4875 14.325C12.3442 14.5251 12.2383 14.7496 12.175 14.9875C12.0925 15.261 12.0339 15.5413 12 15.825L13.1875 15.9875C13.1875 15.8 13.25 15.625 13.275 15.5C13.2955 15.3841 13.3291 15.2708 13.375 15.1625C13.404 15.0996 13.4467 15.0441 13.5 15C13.5803 14.968 13.6697 14.968 13.75 15C13.8173 14.9919 13.8855 15.0042 13.9457 15.0354C14.0059 15.0666 14.0553 15.1153 14.0875 15.175C14.1636 15.3567 14.1977 15.5532 14.1875 15.75C14.2037 15.9789 14.2037 16.2086 14.1875 16.4375C14.1793 16.5948 14.1366 16.7484 14.0625 16.8875C14.014 16.9923 13.9298 17.0764 13.825 17.125C13.6999 17.1661 13.5692 17.1872 13.4375 17.1875H13.1375V18.325H13.4C13.5527 18.3157 13.7056 18.3369 13.85 18.3875C13.9667 18.4252 14.0649 18.5055 14.125 18.6125C14.202 18.7511 14.2489 18.9045 14.2625 19.0625C14.2782 19.2955 14.2782 19.5294 14.2625 19.7625C14.2785 20.0873 14.2405 20.4126 14.15 20.725C14.1278 20.8109 14.0777 20.887 14.0076 20.9413C13.9374 20.9956 13.8512 21.025 13.7625 21.025C13.6814 21.0281 13.6016 21.0039 13.5359 20.9563C13.4702 20.9088 13.4223 20.8405 13.4 20.7625C13.3081 20.4839 13.2576 20.1933 13.25 19.9L12 20.0625C12.0214 20.3542 12.0716 20.6431 12.15 20.925C12.2158 21.1658 12.3214 21.394 12.4625 21.6C12.5963 21.7844 12.7719 21.9343 12.975 22.0375C13.2115 22.1489 13.4698 22.2066 13.7312 22.2066C13.9927 22.2066 14.251 22.1489 14.4875 22.0375C14.7135 21.92 14.9068 21.7482 15.05 21.5375C15.2114 21.2987 15.3259 21.0315 15.3875 20.75C15.4667 20.4015 15.5045 20.0448 15.5 19.6875C15.5053 19.3816 15.4802 19.0759 15.425 18.775C15.3879 18.5471 15.3027 18.3298 15.175 18.1375Z" fill="#387EB9"/>
<path d="M16.85 14.25C16.8019 14.3503 16.7339 14.4396 16.65 14.5125C16.5617 14.5792 16.465 14.6338 16.3625 14.675C16.2275 14.7153 16.0896 14.7445 15.95 14.7625V15.5625H16.75V22.0125H18V13.9H16.9375C16.9195 14.0192 16.8902 14.1364 16.85 14.25Z" fill="#387EB9"/>
</svg>
