<svg width="12" height="17" viewBox="0 0 12 17" fill="none" xmlns="http://www.w3.org/2000/svg">
<path d="M11.9122 6.60139C11.8726 6.57594 11.8269 6.56245 11.7802 6.56245C11.7335 6.56245 11.6878 6.57594 11.6482 6.60139L7.65836 10.7103V0.135956C7.64496 0.103685 7.62489 0.0748075 7.59956 0.0513291C7.57423 0.0278507 7.54424 0.0103349 7.51167 0H4.57796C4.51572 0 4.45602 0.0254648 4.41201 0.0707921C4.36799 0.116119 4.34327 0.177596 4.34327 0.241699V10.816L0.426767 6.64671C0.388681 6.61729 0.342358 6.60139 0.29475 6.60139C0.247143 6.60139 0.200819 6.61729 0.162733 6.64671C0.120168 6.6622 0.0832621 6.69081 0.0570216 6.72864C0.030781 6.76647 0.0164763 6.8117 0.0160478 6.85819V10.8009C-0.00534925 10.8593 -0.00534925 10.9238 0.0160478 10.9822L5.79545 16.9189C5.8161 16.9443 5.84191 16.9647 5.87105 16.9787C5.9002 16.9927 5.93197 17 5.96414 17C5.9963 17 6.02808 16.9927 6.05722 16.9787C6.08637 16.9647 6.11218 16.9443 6.13283 16.9189L11.9122 10.9822C11.959 10.9341 11.9854 10.8689 11.9856 10.8009V6.8733C12.0025 6.82578 12.0046 6.77396 11.9914 6.72517C11.9783 6.67639 11.9506 6.63309 11.9122 6.60139Z" fill="#B3DC10"/>
</svg>
