<svg width="14" height="18" viewBox="0 0 14 18" fill="none" xmlns="http://www.w3.org/2000/svg">
<path d="M13.15 6.73496C13.1499 6.66739 13.1229 6.60266 13.075 6.55496L7.16503 0.659962C7.14392 0.634745 7.11753 0.614464 7.08772 0.600549C7.05792 0.586634 7.02543 0.579422 6.99253 0.579422C6.95964 0.579422 6.92715 0.586634 6.89735 0.600549C6.86754 0.614464 6.84115 0.634745 6.82004 0.659962L0.910035 6.55496C0.862176 6.60266 0.835201 6.66739 0.835035 6.73496V10.635C0.834531 10.6832 0.848573 10.7305 0.87533 10.7706C0.902087 10.8107 0.940317 10.8419 0.985035 10.86C1.02553 10.8852 1.0723 10.8986 1.12004 10.8986C1.16777 10.8986 1.21454 10.8852 1.25504 10.86L5.33504 6.77996V17.28C5.33504 17.3436 5.36032 17.4047 5.40533 17.4497C5.45034 17.4947 5.51138 17.52 5.57504 17.52H8.50004C8.56369 17.52 8.62473 17.4947 8.66974 17.4497C8.71475 17.4047 8.74004 17.3436 8.74004 17.28V6.74996L12.805 10.815C12.844 10.8442 12.8914 10.86 12.94 10.86C12.9887 10.86 13.0361 10.8442 13.075 10.815C13.1186 10.7996 13.1563 10.7712 13.1831 10.7336C13.21 10.696 13.2246 10.6511 13.225 10.605L13.15 6.73496Z" fill="#C60018"/>
</svg>
