<svg width="28" height="50" viewBox="0 0 28 50" fill="none" xmlns="http://www.w3.org/2000/svg">
<g filter="url(#filter0_d)">
<ellipse cx="13.7576" cy="13.8438" rx="5.95438" ry="6.03159" fill="white"/>
<path d="M13.5078 17.847C12.6648 17.8466 11.8412 17.5935 11.1423 17.1202C10.4435 16.6468 9.90117 15.9747 9.58486 15.1899C9.26855 14.4051 9.19263 13.5433 9.36682 12.7149C9.541 11.8865 9.95737 11.1292 10.5626 10.5399C11.1679 9.9506 11.9344 9.55617 12.7642 9.40709C13.5939 9.25801 14.4491 9.36108 15.2202 9.70309C15.9913 10.0451 16.6432 10.6105 17.0925 11.3269C17.5417 12.0433 17.7679 12.878 17.7421 13.7243C17.7083 14.8295 17.2473 15.8781 16.4569 16.6478C15.6664 17.4174 14.6086 17.8475 13.5078 17.847ZM13.5078 3C10.9861 3 8.5678 4.00617 6.78476 5.79716C5.00171 7.58815 4 10.0173 4 12.5501C4 17.4556 12.3907 42.7921 12.7544 43.8619C12.8122 44.0156 12.9153 44.148 13.0499 44.2415C13.1844 44.3349 13.3442 44.385 13.5078 44.385C13.6714 44.385 13.8311 44.3349 13.9657 44.2415C14.1002 44.148 14.2033 44.0156 14.2611 43.8619C14.6248 42.7921 23.0155 17.4556 23.0155 12.5501C23.0155 10.0173 22.0138 7.58815 20.2307 5.79716C18.4477 4.00617 16.0294 3 13.5078 3Z" fill="#9B0011"/>
</g>
<defs>
<filter id="filter0_d" x="0" y="0" width="27.0155" height="49.385" filterUnits="userSpaceOnUse" color-interpolation-filters="sRGB">
<feFlood flood-opacity="0" result="BackgroundImageFix"/>
<feColorMatrix in="SourceAlpha" type="matrix" values="0 0 0 0 0 0 0 0 0 0 0 0 0 0 0 0 0 0 127 0"/>
<feOffset dy="1"/>
<feGaussianBlur stdDeviation="2"/>
<feColorMatrix type="matrix" values="0 0 0 0 0 0 0 0 0 0 0 0 0 0 0 0 0 0 0.25 0"/>
<feBlend mode="normal" in2="BackgroundImageFix" result="effect1_dropShadow"/>
<feBlend mode="normal" in="SourceGraphic" in2="effect1_dropShadow" result="shape"/>
</filter>
</defs>
</svg>
